<svg id="visual" viewBox="0 0 960 540" width="960" height="540" xmlns="http://www.w3.org/2000/svg" xmlns:xlink="http://www.w3.org/1999/xlink" version="1.1"><rect x="0" y="0" width="960" height="540" fill="#001220"></rect><path d="M0 398L16 401.5C32 405 64 412 96 407C128 402 160 385 192 379.2C224 373.3 256 378.7 288 386.7C320 394.7 352 405.3 384 405.5C416 405.7 448 395.3 480 391C512 386.7 544 388.3 576 387C608 385.7 640 381.3 672 381.5C704 381.7 736 386.3 768 389.5C800 392.7 832 394.3 864 396.5C896 398.7 928 401.3 944 402.7L960 404L960 541L944 541C928 541 896 541 864 541C832 541 800 541 768 541C736 541 704 541 672 541C640 541 608 541 576 541C544 541 512 541 480 541C448 541 416 541 384 541C352 541 320 541 288 541C256 541 224 541 192 541C160 541 128 541 96 541C64 541 32 541 16 541L0 541Z" fill="#fa7268"></path><path d="M0 423L16 428.5C32 434 64 445 96 449.7C128 454.3 160 452.7 192 453.2C224 453.7 256 456.3 288 457.5C320 458.7 352 458.3 384 457C416 455.7 448 453.3 480 452.8C512 452.3 544 453.7 576 448.8C608 444 640 433 672 433.2C704 433.3 736 444.7 768 448.7C800 452.7 832 449.3 864 444.3C896 439.3 928 432.7 944 429.3L960 426L960 541L944 541C928 541 896 541 864 541C832 541 800 541 768 541C736 541 704 541 672 541C640 541 608 541 576 541C544 541 512 541 480 541C448 541 416 541 384 541C352 541 320 541 288 541C256 541 224 541 192 541C160 541 128 541 96 541C64 541 32 541 16 541L0 541Z" fill="#e34c67"></path><path d="M0 496L16 492.3C32 488.7 64 481.3 96 479.5C128 477.7 160 481.3 192 485.8C224 490.3 256 495.7 288 497.5C320 499.3 352 497.7 384 493C416 488.3 448 480.7 480 480C512 479.3 544 485.7 576 485.3C608 485 640 478 672 475.3C704 472.7 736 474.3 768 476.3C800 478.3 832 480.7 864 484.2C896 487.7 928 492.3 944 494.7L960 497L960 541L944 541C928 541 896 541 864 541C832 541 800 541 768 541C736 541 704 541 672 541C640 541 608 541 576 541C544 541 512 541 480 541C448 541 416 541 384 541C352 541 320 541 288 541C256 541 224 541 192 541C160 541 128 541 96 541C64 541 32 541 16 541L0 541Z" fill="#c62368"></path></svg>